# xmcd
#
# Track frame offsets: 
#        150
#        17902
#        31065
#        49885
#        70105
#        85000
#        100195
#        111662
#        129217
#        145892
#        159985
#        172157
#        190667
#        211620
#        223815
#        239182
#        262032
#        276505
#        293872
#        313925
#
# Disc length: 4337 seconds
#
# Revision: 1
# Processed by: cddbd v1.5.2PL0 Copyright (c) Steve Scherf et al.
# Submitted via: ExactAudioCopy v0.99pb4
#
DISCID=3410ef14
DTITLE=Kenny Clarke-Francy Boland Sextet - Calypso Blues
DYEAR=1997
DGENRE=Jazz
TTITLE0=ebony samba
TTITLE1=ti tin deo
TTITLE2=please don't leave
TTITLE3=lush life
TTITLE4=the man from potter's crossing
TTITLE5=wives and lovers
TTITLE6=ensadinado
TTITLE7=lorraine
TTITLE8=love hungry
TTITLE9=balafon
TTITLE10=day by day
TTITLE11=calypso blues
TTITLE12=invitation
TTITLE13=insensatez
TTITLE14=serenata
TTITLE15=con alma
TTITLE16=just give me time
TTITLE17=born to be blue
TTITLE18=lilemor
TTITLE19=sconsolato
EXTD=YEAR: 1997
EXTT0=
EXTT1=
EXTT2=
EXTT3=
EXTT4=
EXTT5=
EXTT6=
EXTT7=
EXTT8=
EXTT9=
EXTT10=
EXTT11=
EXTT12=
EXTT13=
EXTT14=
EXTT15=
EXTT16=
EXTT17=
EXTT18=
EXTT19=
PLAYORDER=
